Coordinates
version=1
nRows=9
nColumns=24
inDegrees=yes

Units are S.I. units (second, meters, Newtons, ...)
Angles are in degrees.

endheader
time	pelvis_tilt	pelvis_list	pelvis_rotation	pelvis_tx	pelvis_ty	pelvis_tz	hip_flexion_r	hip_adduction_r	hip_rotation_r	knee_angle_r	ankle_angle_r	subtalar_angle_r	mtp_angle_r	hip_flexion_l	hip_adduction_l	hip_rotation_l	knee_angle_l	ankle_angle_l	subtalar_angle_l	mtp_angle_l	lumbar_extension	lumbar_bending	lumbar_rotation
      0.52100000	     -0.16976366	      7.22056599	     -3.33967357	     -0.72390282	      0.97879495	      0.30549187	     25.01365892	     -5.63200739	     -1.22342025	     -0.34782187	      2.40995244	     -1.53515538	      1.06714759	    -20.33099443	     12.47704034	      7.07341287	      1.99321827	      9.32570275	    -14.09743337	     -0.14471846	    -12.49283080	     -0.65703324	     -8.37403562
      0.52516667	     -0.16625246	      7.08481651	     -3.36116453	     -0.71816857	      0.97805647	      0.30570709	     24.97591388	     -5.43817349	     -1.06938490	     -0.48697671	      2.03063306	     -1.64994684	      7.63442247	    -20.47590063	     12.34304524	      6.92711715	      1.52897405	      9.75001989	    -13.65052477	     -2.11065214	    -12.51724290	     -0.44747838	     -8.43243314
      0.52933333	     -0.27689799	      6.97010324	     -3.41440950	     -0.71242013	      0.97718791	      0.30599965	     25.09051845	     -5.23492090	     -0.75987114	     -0.75310990	      1.68550439	     -1.85391536	      7.65566912	    -20.49484824	     12.23915861	      6.85089832	      1.07796314	      9.89751628	    -13.53292353	     -2.07817873	    -12.37871434	     -0.27970201	     -8.39030284
      0.53350000	     -0.34696885	      6.82822057	     -3.45916078	     -0.70664872	      0.97642865	      0.30630125	     25.15568784	     -5.01283359	     -0.45610105	     -1.08347807	      1.32970443	     -2.06877879	      7.70165948	    -20.50794963	     12.10812971	      6.64267295	      0.51561865	     10.18965153	    -13.18388651	     -2.00428486	    -12.30662818	     -0.07147612	     -8.40632477
      0.53766667	     -0.41598202	      6.66873321	     -3.51114310	     -0.70083320	      0.97571203	      0.30661367	     25.23346583	     -4.77129771	     -0.16158419	     -1.50583002	      0.94116420	     -2.28475698	      7.76278832	    -20.51752886	     11.96248875	      6.44214597	     -0.05459285	     10.44464898	    -12.86834213	     -1.89951441	    -12.23132916	      0.15455429	     -8.39823204
      0.54183333	     -0.50947234	      6.50014297	     -3.55740415	     -0.69497038	      0.97501003	      0.30693798	     25.34783514	     -4.51949569	      0.12415657	     -2.00698465	      0.49084417	     -2.53568044	      7.81517742	    -20.49714819	     11.80457958	      6.29198301	     -0.63349362	     10.65056259	    -12.61212870	     -1.79855462	    -12.11445366	      0.39696199	     -8.39067891
      0.54600000	     -0.57703465	      6.32388678	     -3.60919845	     -0.68911263	      0.97438321	      0.30730208	     25.43384559	     -4.25734564	      0.44573157	     -2.54895782	      0.02422380	     -2.86571612	      7.90017576	    -20.44916319	     11.64356377	      6.02477018	     -1.32980313	     10.90541010	    -12.25855637	     -1.63191184	    -12.05101570	      0.64016339	     -8.38826800
      0.55016667	     -0.67759689	      6.13463388	     -3.66192291	     -0.68318379	      0.97374909	      0.30765653	     25.57153721	     -3.97990015	      0.73620992	     -3.16984943	     -0.49480535	     -3.19057950	      7.96845761	    -20.38435663	     11.46960328	      5.83252283	     -1.98889271	     11.07648042	    -12.00530060	     -1.48369086	    -11.91641724	      0.91389862	     -8.36962505
      0.55433333	     -0.72182550	      5.93327916	     -3.72100958	     -0.67727145	      0.97323100	      0.30807720	     25.64895888	     -3.68780204	      1.04691678	     -3.82272733	     -1.00776175	     -3.58526706	      8.09408567	    -20.32255446	     11.28391306	      5.52839151	     -2.76369778	     11.30654376	    -11.61796229	     -1.20584961	    -11.88448239	      1.18098866	     -8.36003260
